HIERARCHY
ROOT hip
{
  OFFSET 5.51535 103.731 -2.80141
  CHANNELS 6 Xposition Yposition Zposition Zrotation Xrotation Yrotation
  JOINT abdomen
  {
    OFFSET 0 -1.186 -1.5018
    CHANNELS 6 Xposition Yposition Zposition Zrotation Xrotation Yrotation
    JOINT abdomen2
    {
      OFFSET 0 9.964 0.2134
      CHANNELS 6 Xposition Yposition Zposition Zrotation Xrotation Yrotation
      JOINT chest
      {
        OFFSET 0 13.134 -3.2573
        CHANNELS 6 Xposition Yposition Zposition Zrotation Xrotation Yrotation
        JOINT neck
        {
          OFFSET 0 20.686 -1.6905
          CHANNELS 6 Xposition Yposition Zposition Zrotation Xrotation Yrotation
          JOINT head
          {
            OFFSET 0 7.23801 -0.1237
            CHANNELS 6 Xposition Yposition Zposition Zrotation Xrotation Yrotation
            End Site
            {
              OFFSET 0 0 0
            }
          }
        }
        JOINT lCollar
        {
          OFFSET 1.7069 20.075 5.0056
          CHANNELS 6 Xposition Yposition Zposition Zrotation Xrotation Yrotation
          JOINT lShldr
          {
            OFFSET 13.6458 -0.0470195 -4.849
            CHANNELS 6 Xposition Yposition Zposition Zrotation Xrotation Yrotation
            JOINT lForeArm
            {
              OFFSET 28.3255 -0.97589 2.2888
              CHANNELS 6 Xposition Yposition Zposition Zrotation Xrotation Yrotation
              JOINT lHand
              {
                OFFSET 22.1583 -0.529998 10.8316
                CHANNELS 6 Xposition Yposition Zposition Zrotation Xrotation Yrotation
                JOINT lThumb1
                {
                  OFFSET 0.786 0.111997 2.5817
                  CHANNELS 6 Xposition Yposition Zposition Zrotation Xrotation Yrotation
                  JOINT lThumb2
                  {
                    OFFSET 0.360097 -0.877999 4.2331
                    CHANNELS 6 Xposition Yposition Zposition Zrotation Xrotation Yrotation
                    JOINT lThumb2_End
                    {
                      OFFSET 1.8127 -1.21601 2.2227
                      CHANNELS 6 Xposition Yposition Zposition Zrotation Xrotation Yrotation
                      End Site
                      {
                        OFFSET 0.0180981 -0.012195 0.0222007
                      }
                    }
                  }
                }
                JOINT lCarpal1
                {
                  OFFSET 0.9571 1.114 1.7695
                  CHANNELS 6 Xposition Yposition Zposition Zrotation Xrotation Yrotation
                  JOINT lIndex1
                  {
                    OFFSET 4.12461 0.486992 4.1451
                    CHANNELS 6 Xposition Yposition Zposition Zrotation Xrotation Yrotation
                    JOINT lIndex2
                    {
                      OFFSET 3.4052 -1.45401 2.7682
                      CHANNELS 6 Xposition Yposition Zposition Zrotation Xrotation Yrotation
                      JOINT lIndex2_End
                      {
                        OFFSET 1.45309 -1.79499 1.2713
                        CHANNELS 6 Xposition Yposition Zposition Zrotation Xrotation Yrotation
                        End Site
                        {
                          OFFSET 0.0144979 -0.0179083 0.0126995
                        }
                      }
                    }
                  }
                  JOINT lMid1
                  {
                    OFFSET 5.6954 0.209987 2.1184
                    CHANNELS 6 Xposition Yposition Zposition Zrotation Xrotation Yrotation
                    JOINT lMid2
                    {
                      OFFSET 3.9766 -1.53999 2.3863
                      CHANNELS 6 Xposition Yposition Zposition Zrotation Xrotation Yrotation
                      JOINT lMid2_End
                      {
                        OFFSET 1.4042 -1.926 1.125
                        CHANNELS 6 Xposition Yposition Zposition Zrotation Xrotation Yrotation
                        End Site
                        {
                          OFFSET 0.013999 -0.0193044 0.011301
                        }
                      }
                    }
                  }
                }
                JOINT lCarpal2
                {
                  OFFSET 2.0956 0.66 -0.3894
                  CHANNELS 6 Xposition Yposition Zposition Zrotation Xrotation Yrotation
                  JOINT lRing1
                  {
                    OFFSET 5.0395 -0.090013 2.4971
                    CHANNELS 6 Xposition Yposition Zposition Zrotation Xrotation Yrotation
                    JOINT lRing2
                    {
                      OFFSET 3.7921 -1.55199 1.4806
                      CHANNELS 6 Xposition Yposition Zposition Zrotation Xrotation Yrotation
                      JOINT lRing2_End
                      {
                        OFFSET 1.4655 -1.808 0.9609
                        CHANNELS 6 Xposition Yposition Zposition Zrotation Xrotation Yrotation
                        End Site
                        {
                          OFFSET 0.0147015 -0.0181014 0.00959957
                        }
                      }
                    }
                  }
                  JOINT lPinky1
                  {
                    OFFSET 4.9141 -1.269 0.3591
                    CHANNELS 6 Xposition Yposition Zposition Zrotation Xrotation Yrotation
                    JOINT lPinky2
                    {
                      OFFSET 3.1477 -1.685 0.8462
                      CHANNELS 6 Xposition Yposition Zposition Zrotation Xrotation Yrotation
                      JOINT lPinky2_End
                      {
                        OFFSET 0.805498 -1.58501 0.795499
                        CHANNELS 6 Xposition Yposition Zposition Zrotation Xrotation Yrotation
                        End Site
                        {
                          OFFSET 0.00809703 -0.0157944 0.00799848
                        }
                      }
                    }
                  }
                }
              }
            }
          }
        }
        JOINT rCollar
        {
          OFFSET -1.7069 20.075 5.0056
          CHANNELS 6 Xposition Yposition Zposition Zrotation Xrotation Yrotation
          JOINT rShldr
          {
            OFFSET -13.6458 -0.0470107 -4.849
            CHANNELS 6 Xposition Yposition Zposition Zrotation Xrotation Yrotation
            JOINT rForeArm
            {
              OFFSET -28.3255 -0.975895 2.2888
              CHANNELS 6 Xposition Yposition Zposition Zrotation Xrotation Yrotation
              JOINT rHand
              {
                OFFSET -22.1583 -0.530007 10.8316
                CHANNELS 6 Xposition Yposition Zposition Zrotation Xrotation Yrotation
                JOINT rThumb1
                {
                  OFFSET -0.785997 0.112005 2.5817
                  CHANNELS 6 Xposition Yposition Zposition Zrotation Xrotation Yrotation
                  JOINT rThumb2
                  {
                    OFFSET -0.360106 -0.877994 4.2331
                    CHANNELS 6 Xposition Yposition Zposition Zrotation Xrotation Yrotation
                    JOINT rThumb2_End
                    {
                      OFFSET -1.8127 -1.216 2.2227
                      CHANNELS 6 Xposition Yposition Zposition Zrotation Xrotation Yrotation
                      End Site
                      {
                        OFFSET -0.0180972 -0.0121973 0.0222005
                      }
                    }
                  }
                }
                JOINT rCarpal1
                {
                  OFFSET -0.9571 1.114 1.7695
                  CHANNELS 6 Xposition Yposition Zposition Zrotation Xrotation Yrotation
                  JOINT rIndex1
                  {
                    OFFSET -4.1246 0.487011 4.1451
                    CHANNELS 6 Xposition Yposition Zposition Zrotation Xrotation Yrotation
                    JOINT rIndex2
                    {
                      OFFSET -3.4052 -1.45401 2.7682
                      CHANNELS 6 Xposition Yposition Zposition Zrotation Xrotation Yrotation
                      JOINT rIndex2_End
                      {
                        OFFSET -1.4531 -1.795 1.2713
                        CHANNELS 6 Xposition Yposition Zposition Zrotation Xrotation Yrotation
                        End Site
                        {
                          OFFSET -0.0145077 -0.0180048 0.0127017
                        }
                      }
                    }
                  }
                  JOINT rMid1
                  {
                    OFFSET -5.6954 0.210002 2.1184
                    CHANNELS 6 Xposition Yposition Zposition Zrotation Xrotation Yrotation
                    JOINT rMid2
                    {
                      OFFSET -3.9766 -1.54 2.3863
                      CHANNELS 6 Xposition Yposition Zposition Zrotation Xrotation Yrotation
                      JOINT rMid2_End
                      {
                        OFFSET -1.4042 -1.926 1.125
                        CHANNELS 6 Xposition Yposition Zposition Zrotation Xrotation Yrotation
                        End Site
                        {
                          OFFSET -0.0139948 -0.0192916 0.0112994
                        }
                      }
                    }
                  }
                }
                JOINT rCarpal2
                {
                  OFFSET -2.0956 0.66 -0.3894
                  CHANNELS 6 Xposition Yposition Zposition Zrotation Xrotation Yrotation
                  JOINT rRing1
                  {
                    OFFSET -5.03951 -0.0899879 2.4971
                    CHANNELS 6 Xposition Yposition Zposition Zrotation Xrotation Yrotation
                    JOINT rRing2
                    {
                      OFFSET -3.7921 -1.55201 1.4806
                      CHANNELS 6 Xposition Yposition Zposition Zrotation Xrotation Yrotation
                      JOINT rRing2_End
                      {
                        OFFSET -1.4655 -1.808 0.960901
                        CHANNELS 6 Xposition Yposition Zposition Zrotation Xrotation Yrotation
                        End Site
                        {
                          OFFSET -0.0146934 -0.0180999 0.00959832
                        }
                      }
                    }
                  }
                  JOINT rPinky1
                  {
                    OFFSET -4.91411 -1.26899 0.359202
                    CHANNELS 6 Xposition Yposition Zposition Zrotation Xrotation Yrotation
                    JOINT rPinky2
                    {
                      OFFSET -3.14769 -1.68501 0.846199
                      CHANNELS 6 Xposition Yposition Zposition Zrotation Xrotation Yrotation
                      JOINT rPinky2_End
                      {
                        OFFSET -0.805498 -1.585 0.7955
                        CHANNELS 6 Xposition Yposition Zposition Zrotation Xrotation Yrotation
                        End Site
                        {
                          OFFSET -0.00810035 -0.0158035 0.00800029
                        }
                      }
                    }
                  }
                }
              }
            }
          }
        }
      }
    }
  }
  JOINT lThigh
  {
    OFFSET 8.367 -8.2066 0.5982
    CHANNELS 6 Xposition Yposition Zposition Zrotation Xrotation Yrotation
    JOINT lShin
    {
      OFFSET 2.1923 -43.463 -0.4932
      CHANNELS 6 Xposition Yposition Zposition Zrotation Xrotation Yrotation
      JOINT lFoot
      {
        OFFSET 0.733301 -45.8593 -2.6451
        CHANNELS 6 Xposition Yposition Zposition Zrotation Xrotation Yrotation
        End Site
        {
          OFFSET 2.6618 -4.2699 12.3931
        }
      }
    }
  }
  JOINT rThigh
  {
    OFFSET -8.367 -8.2066 0.5982
    CHANNELS 6 Xposition Yposition Zposition Zrotation Xrotation Yrotation
    JOINT rShin
    {
      OFFSET -2.1923 -43.463 -0.4931
      CHANNELS 6 Xposition Yposition Zposition Zrotation Xrotation Yrotation
      JOINT rFoot
      {
        OFFSET -0.733299 -45.8593 -2.6451
        CHANNELS 6 Xposition Yposition Zposition Zrotation Xrotation Yrotation
        End Site
        {
          OFFSET -2.6618 -4.2699 12.3931
        }
      }
    }
  }
}
MOTION
Frames:	4
Frame Time:	0.0333333
1.09334 103.755 -1.71705 -5.12381 -5.28255 -7.36158 -6.63442e-007 -1.18599 -1.5018 0.909617 1.45201 -0.353154 -4.7453e-008 9.964 0.2134 1.82904 2.8982 -0.729689 7.41507e-008 13.134 -3.2573 1.82904 2.8982 -0.729688 1.94777e-008 20.686 -1.6905 -0.0510055 -5.50078 -1.62219 -6.28491e-008 7.23801 -0.1237 3.45256 -0.475766 0.995883 1.7069 20.075 5.0056 19.3846 0.0170247 0.223125 13.6458 -0.0470166 -4.84901 -95.234 12.9114 13.0259 28.3255 -0.975894 2.2888 -3.74066 14.8383 -0.594978 22.1583 -0.529988 10.8316 -9.36128 21.7075 18.2855 0.786002 0.111997 2.5817 17.6441 -7.70191 0.97159 0.360098 -0.877999 4.2331 -3.72233 -0.224287 -6.8009 1.8127 -1.21601 2.2227 -0.00878391 -0.000993773 -0.0159981 0.9571 1.114 1.7695 3.18055e-015 -6.36111e-015 -1.59028e-015 4.12461 0.486992 4.1451 16.205 -0.686456 -0.0521647 3.4052 -1.45401 2.7682 8.37557 -4.00125 -3.18262 1.4531 -1.79499 1.2713 8.96013 -4.30093 -3.38548 5.69541 0.209987 2.1184 22.8276 -9.68722 -7.64538 3.9766 -1.53999 2.3863 10.7892 -5.8077 -4.03257 1.4042 -1.926 1.125 17.1142 -9.60826 -5.92014 2.0956 0.66 -0.3894 3.18055e-015 -6.36111e-015 -1.59028e-015 5.0395 -0.0900129 2.4971 27.8246 -20.3148 -11.8016 3.7921 -1.55199 1.4806 13.5926 -8.16141 -5.7011 1.4655 -1.808 0.960899 19.7152 -12.3456 -7.68829 4.9141 -1.269 0.359102 26.8887 -21.4066 -10.5322 3.1477 -1.685 0.846199 17.495 -11.4611 -6.79413 0.805497 -1.585 0.795499 10.5668 -6.60091 -4.46638 -1.7069 20.075 5.0056 -13.559 -0.00978524 -2.93845 -13.6458 -0.0470158 -4.849 87.1074 3.44001 -12.567 -28.3255 -0.975891 2.2888 -0.657937 24.1718 -2.03715 -22.1583 -0.530006 10.8316 -8.05257 23.6193 12.7709 -0.785999 0.112006 2.5817 -19.0385 -3.71389 -7.63079 -0.360107 -0.877993 4.2331 1.47681 -1.18414 4.36328 -1.8127 -1.216 2.2227 -0.885415 0.804875 -2.74126 -0.9571 1.114 1.7695 1.59028e-015 -3.18055e-015 -0 -4.12461 0.487012 4.1451 -10.5201 3.31781 -3.3473 -3.4052 -1.45401 2.7682 -4.01869 -1.36245 0.517619 -1.45309 -1.795 1.2713 -4.66829 -1.58614 0.592106 -5.6954 0.210004 2.1184 -20.1432 -4.73974 2.25023 -3.9766 -1.54 2.3863 -6.88787 -2.65049 0.790398 -1.4042 -1.926 1.125 -14.1162 -5.51854 1.27391 -2.0956 0.66 -0.3894 1.59028e-015 -3.18055e-015 -0 -5.03951 -0.0899859 2.4971 -23.3314 -11.9926 3.93117 -3.7921 -1.55201 1.4806 -5.57787 -2.36912 0.894618 -1.4655 -1.808 0.960901 -12.7775 -5.54923 1.70732 -4.91411 -1.26899 0.359201 -24.9786 -14.3341 2.40745 -3.1477 -1.68501 0.846199 -12.8663 -5.96543 1.50772 -0.8055 -1.585 0.795499 -4.73683 -2.14987 0.708266 8.367 -8.20659 0.598202 -0.0781088 5.56342 -13.9421 2.1923 -43.463 -0.4932 0.101036 4.22254 0.389978 0.7333 -45.8593 -2.6451 4.15646 -2.83976 -5.28137 -8.36701 -8.2066 0.598201 12.807 8.73938 11.1938 -2.1923 -43.463 -0.493099 -2.3087 -2.538 -0.149237 -0.733299 -45.8593 -2.6451 -4.1736 -1.45776 -17.1082 
1.06247 103.766 -1.71735 -5.02326 -5.1588 -7.37232 -1.6399e-007 -1.186 -1.5018 0.913187 1.41336 -0.367855 1.92526e-008 9.964 0.2134 1.83629 2.82069 -0.758542 -1.5734e-007 13.134 -3.2573 1.83629 2.82069 -0.75854 -1.46989e-007 20.686 -1.6905 -0.0466833 -5.67702 -1.52283 -2.3587e-007 7.238 -0.123701 3.38443 -0.525069 1.05487 1.7069 20.075 5.0056 19.3759 0.0244213 0.296108 13.6458 -0.0470055 -4.849 -95.2895 12.9504 12.9101 28.3255 -0.975898 2.2888 -3.76591 14.7254 -0.582337 22.1583 -0.52999 10.8316 -9.3825 21.4459 18.3021 0.786006 0.111997 2.5817 17.6442 -7.70172 0.971547 0.360099 -0.877999 4.2331 -3.72232 -0.224285 -6.8009 1.8127 -1.21601 2.2227 -0.00877027 -0.000995545 -0.0160112 0.9571 1.114 1.7695 3.18055e-015 -6.36111e-015 6.36111e-015 4.1246 0.486992 4.1451 16.2022 -0.68522 -0.0510573 3.4052 -1.454 2.7682 8.37401 -4.00045 -3.18205 1.4531 -1.79499 1.2713 8.95855 -4.30011 -3.38493 5.6954 0.209988 2.1184 22.8239 -9.68478 -7.64437 3.9766 -1.53999 2.3863 10.7863 -5.80604 -4.03163 1.4042 -1.926 1.125 17.1123 -9.60706 -5.91965 2.0956 0.66 -0.3894 3.18055e-015 -6.36111e-015 6.36111e-015 5.0395 -0.0900129 2.4971 27.8211 -20.312 -11.8011 3.7921 -1.55199 1.4806 13.5899 -8.15959 -5.70012 1.4655 -1.808 0.9609 19.7134 -12.3443 -7.68774 4.9141 -1.269 0.359102 26.8843 -21.4031 -10.5316 3.1477 -1.685 0.846199 17.4932 -11.4598 -6.7936 0.805499 -1.58501 0.7955 10.564 -6.59907 -4.46536 -1.7069 20.075 5.0056 -13.6301 -0.011761 -2.86849 -13.6458 -0.04701 -4.849 87.0521 3.39339 -12.666 -28.3255 -0.97589 2.2888 -0.692548 24.2064 -2.02272 -22.1583 -0.530021 10.8316 -7.84615 23.7912 12.4303 -0.785997 0.112005 2.5817 -19.0386 -3.71372 -7.63081 -0.360106 -0.877993 4.2331 1.4768 -1.18413 4.3633 -1.8127 -1.216 2.2227 -0.885426 0.804873 -2.74127 -0.9571 1.114 1.7695 -2.38542e-015 -6.36111e-015 -7.95139e-016 -4.1246 0.487012 4.1451 -10.5193 3.31801 -3.34745 -3.4052 -1.45401 2.7682 -4.01807 -1.36224 0.517545 -1.4531 -1.795 1.2713 -4.66787 -1.586 0.592036 -5.6954 0.210001 2.1184 -20.1389 -4.73794 2.24999 -3.9766 -1.54 2.3863 -6.88466 -2.6492 0.790099 -1.4042 -1.926 1.125 -14.1139 -5.51766 1.27381 -2.0956 0.66 -0.3894 -2.38542e-015 -6.36111e-015 -7.95139e-016 -5.03951 -0.089987 2.4971 -23.3272 -11.9905 3.93127 -3.7921 -1.552 1.4806 -5.57415 -2.36752 0.894072 -1.4655 -1.808 0.960901 -12.7754 -5.54825 1.70715 -4.91411 -1.26899 0.359203 -24.9732 -14.3315 2.40788 -3.1477 -1.68501 0.846199 -12.8642 -5.96442 1.5076 -0.805501 -1.585 0.7955 -4.73325 -2.14822 0.707813 8.367 -8.20662 0.5982 -0.132681 5.32313 -13.6134 2.1923 -43.463 -0.493201 0.0747243 4.24198 0.38629 0.7333 -45.8593 -2.6451 4.13619 -2.78789 -5.5108 -8.36701 -8.2066 0.5982 12.6827 8.65405 10.8068 -2.1923 -43.463 -0.493101 -2.30363 -2.6826 -0.150699 -0.733303 -45.8594 -2.6451 -4.07679 -1.317 -16.5628 
0.997157 103.762 -1.73034 -5.00271 -5.12216 -7.3738 -8.89775e-007 -1.186 -1.5018 0.926585 1.40516 -0.36026 -1.12119e-007 9.964 0.2134 1.86284 2.80434 -0.74353 -2.62417e-007 13.134 -3.2573 1.86284 2.80433 -0.743535 -1.1085e-007 20.686 -1.6905 -0.0438786 -5.8244 -1.46523 -4.13357e-007 7.23801 -0.123702 3.42931 -0.590814 1.09163 1.7069 20.075 5.0056 19.4197 0.0251776 0.30433 13.6458 -0.0470106 -4.84901 -95.3005 12.993 12.6709 28.3255 -0.975904 2.2888 -3.84289 14.5015 -0.475016 22.1583 -0.529993 10.8316 -9.28005 21.3921 17.8835 0.786004 0.111997 2.5817 17.6443 -7.70154 0.971494 0.360095 -0.877997 4.2331 -3.72232 -0.224287 -6.80091 1.8127 -1.21601 2.2227 -0.00878524 -0.000987628 -0.0160012 0.9571 1.114 1.7695 -3.18055e-015 -6.36111e-015 3.18055e-015 4.1246 0.486993 4.1451 16.1994 -0.683992 -0.0499448 3.4052 -1.454 2.7682 8.37241 -3.99962 -3.18149 1.4531 -1.79499 1.2713 8.95695 -4.29931 -3.38441 5.6954 0.209988 2.1184 22.8201 -9.68232 -7.64334 3.9766 -1.53999 2.3863 10.7835 -5.80437 -4.03068 1.4042 -1.926 1.125 17.1103 -9.60588 -5.91915 2.0956 0.66 -0.3894 -3.18055e-015 -6.36111e-015 3.18055e-015 5.03951 -0.0900115 2.4971 27.8175 -20.3092 -11.8005 3.7921 -1.55199 1.4806 13.5872 -8.15777 -5.69913 1.4655 -1.808 0.9609 19.7115 -12.343 -7.68723 4.9141 -1.269 0.3591 26.8798 -21.3996 -10.5311 3.1477 -1.685 0.846199 17.4914 -11.4585 -6.79306 0.805497 -1.585 0.795499 10.5613 -6.59722 -4.46434 -1.7069 20.075 5.0056 -13.6509 -0.0125436 -2.82408 -13.6458 -0.0470108 -4.849 87.0604 3.39104 -12.6634 -28.3255 -0.975896 2.2888 -0.678942 24.2023 -2.09723 -22.1583 -0.529998 10.8316 -7.68704 23.7991 12.3108 -0.786004 0.112005 2.5817 -19.0387 -3.71354 -7.63083 -0.360104 -0.877994 4.2331 1.4768 -1.18413 4.3633 -1.81269 -1.216 2.2227 -0.885445 0.804872 -2.74126 -0.9571 1.114 1.7695 5.29669e-031 1.27222e-014 -2.38542e-015 -4.12461 0.487011 4.1451 -10.5186 3.3182 -3.34758 -3.4052 -1.45401 2.7682 -4.01744 -1.36201 0.517469 -1.4531 -1.795 1.2713 -4.66743 -1.58584 0.592015 -5.6954 0.210001 2.1184 -20.1345 -4.73612 2.24976 -3.9766 -1.54 2.3863 -6.8814 -2.64794 0.789789 -1.4042 -1.926 1.125 -14.1117 -5.51677 1.27369 -2.0956 0.66 -0.3894 5.29669e-031 1.27222e-014 -2.38542e-015 -5.03951 -0.0899889 2.4971 -23.3229 -11.9885 3.93139 -3.7921 -1.55201 1.4806 -5.57039 -2.36588 0.893568 -1.4655 -1.808 0.9609 -12.7732 -5.54727 1.70697 -4.91411 -1.26899 0.359202 -24.9679 -14.3289 2.40831 -3.14769 -1.68501 0.846198 -12.8621 -5.96341 1.50747 -0.805501 -1.585 0.7955 -4.7297 -2.14657 0.707346 8.36701 -8.20659 0.598201 -0.101914 5.36774 -13.4614 2.1923 -43.4631 -0.493202 0.0953592 4.16082 0.381594 0.733301 -45.8593 -2.6451 4.09396 -2.80965 -5.62227 -8.36701 -8.2066 0.598201 12.6818 8.55378 10.3241 -2.1923 -43.463 -0.4931 -2.32047 -2.58259 -0.152332 -0.733302 -45.8593 -2.6451 -4.01662 -1.39458 -15.8293 
0.913455 103.772 -1.72281 -4.94807 -5.03593 -7.40227 -9.15216e-008 -1.186 -1.5018 0.928285 1.38056 -0.344206 -1.92021e-007 9.964 0.2134 1.86567 2.75538 -0.711058 -1.97898e-007 13.134 -3.2573 1.86566 2.75538 -0.711056 -7.1787e-009 20.686 -1.6905 -0.0437513 -5.87901 -1.4677 -6.25796e-007 7.23801 -0.123704 3.4893 -0.603073 1.0831 1.7069 20.075 5.0056 19.5107 0.0294252 0.349538 13.6458 -0.0470063 -4.849 -95.3031 13.0351 12.5002 28.3255 -0.975879 2.2888 -3.87715 14.3781 -0.401093 22.1583 -0.529989 10.8316 -9.10682 21.4326 17.4455 0.786001 0.111997 2.5817 17.6444 -7.70136 0.971447 0.360096 -0.877999 4.2331 -3.72231 -0.224301 -6.80091 1.8127 -1.21601 2.2227 -0.00878231 -0.00100401 -0.0160046 0.9571 1.114 1.7695 1.76556e-031 -3.18055e-015 3.18055e-015 4.12461 0.486994 4.1451 16.1967 -0.682746 -0.048853 3.4052 -1.45401 2.7682 8.37082 -3.9988 -3.18093 1.4531 -1.79499 1.2713 8.95537 -4.29849 -3.38388 5.6954 0.209987 2.1184 22.8164 -9.67986 -7.64234 3.9766 -1.53999 2.3863 10.7806 -5.80272 -4.02972 1.4042 -1.926 1.125 17.1029 -9.60128 -5.91717 2.0956 0.66 -0.3894 1.76556e-031 -3.18055e-015 3.18055e-015 5.03951 -0.0900117 2.4971 27.814 -20.3065 -11.7999 3.7921 -1.55199 1.4806 13.5845 -8.15598 -5.69814 1.4655 -1.808 0.9609 19.7045 -12.3381 -7.68517 4.9141 -1.269 0.359099 26.8754 -21.3962 -10.5305 3.1477 -1.685 0.8462 17.4861 -11.4546 -6.79147 0.805498 -1.58501 0.7955 10.5586 -6.59538 -4.46331 -1.7069 20.075 5.0056 -13.6791 -0.0140158 -2.75145 -13.6458 -0.0470154 -4.849 87.1953 3.40295 -12.6452 -28.3255 -0.975881 2.2888 -0.665209 24.0946 -2.16851 -22.1583 -0.530002 10.8316 -7.64041 23.9785 12.2767 -0.785999 0.112005 2.5817 -19.0387 -3.71336 -7.63086 -0.360105 -0.877993 4.2331 1.47679 -1.18413 4.3633 -1.81269 -1.216 2.2227 -0.885427 0.80487 -2.74126 -0.9571 1.114 1.7695 -5.29669e-031 6.36111e-015 4.77083e-015 -4.12461 0.487011 4.1451 -10.5178 3.31842 -3.34773 -3.4052 -1.45401 2.7682 -4.01679 -1.36179 0.517407 -1.4531 -1.795 1.2713 -4.66699 -1.58569 0.591957 -5.69541 0.210001 2.1184 -20.1303 -4.73431 2.2495 -3.9766 -1.54 2.3863 -6.87814 -2.64666 0.789518 -1.4042 -1.926 1.125 -14.1022 -5.51297 1.2733 -2.0956 0.66 -0.3894 -5.29669e-031 6.36111e-015 4.77083e-015 -5.03951 -0.0899874 2.4971 -23.3187 -11.9864 3.93148 -3.7921 -1.552 1.4806 -5.56666 -2.36426 0.893056 -1.4655 -1.808 0.960901 -12.7639 -5.54312 1.70617 -4.91411 -1.26899 0.359201 -24.9626 -14.3263 2.40874 -3.1477 -1.68501 0.846199 -12.8558 -5.96043 1.50705 -0.805502 -1.585 0.7955 -4.72613 -2.14492 0.706866 8.36701 -8.2066 0.598201 -0.0965831 5.23551 -13.5285 2.1923 -43.4631 -0.493201 0.0762376 4.16713 0.374315 0.733301 -45.8593 -2.6451 4.05218 -2.78188 -5.54098 -8.367 -8.20662 0.598199 12.6365 8.47842 10.2774 -2.1923 -43.4631 -0.493101 -2.30871 -2.57583 -0.167335 -0.733302 -45.8594 -2.6451 -4.03643 -1.45255 -15.5325 
